<svg t="1735389963710" class="icon" viewBox="0 0 1024 1024" version="1.1" xmlns="http://www.w3.org/2000/svg" p-id="37686" width="200" height="200"><path d="M384 477.781333a148.778667 148.778667 0 0 1 89.344-67.370666l-11.050667-41.216a191.445333 191.445333 0 0 0-114.901333 86.613333l36.608 21.973333zM367.786667 593.322667a148.992 148.992 0 0 1-4.48-52.992l-42.453334-4.096c-2.133333 22.272-0.426667 45.312 5.674667 68.138666 9.045333 33.706667 26.581333 63.018667 49.706667 86.101334a192.384 192.384 0 0 0 137.557333 56.234666l-0.426667-42.666666a149.674667 149.674667 0 0 1-107.008-43.776c-17.92-17.92-31.573333-40.618667-38.613333-66.944z" fill="#696D7F" p-id="37687"></path><path d="M738.432 151.552c8.533333-14.208 18.944-28.245333 32.213333-38.869333 10.794667-8.661333 23.296-14.805333 38.272-16.896 15.018667-2.048 33.92-0.213333 57.813334 9.386666l15.872-39.68c-29.44-11.733333-55.893333-15.232-79.530667-11.946666a119.722667 119.722667 0 0 0-59.050667 25.813333c-17.877333 14.250667-31.36 32.426667-41.557333 49.194667l-86.954667-55.552-133.290666 141.568a341.333333 341.333333 0 1 0 308.309333 142.592l50.517333-140.074667-102.613333-65.536z m-0.810667 100.693333l-12.8 35.541334A342.997333 342.997333 0 0 0 591.786667 222.72l37.418666-39.722667 108.458667 69.290667z m21.674667 236.16a256 256 0 1 1-494.592 132.522667 256 256 0 0 1 494.549333-132.522667z" fill="#696D7F" p-id="37688"></path></svg>