<?xml version="1.0" standalone="no"?><!DOCTYPE svg PUBLIC "-//W3C//DTD SVG 1.1//EN" "http://www.w3.org/Graphics/SVG/1.1/DTD/svg11.dtd"><svg t="1745308328267" class="icon" viewBox="0 0 1024 1024" version="1.1" xmlns="http://www.w3.org/2000/svg" p-id="8253" xmlns:xlink="http://www.w3.org/1999/xlink" width="200" height="200"><path d="M0 0.000635h1023.997307v1023.997307H0z" fill="#FFFFFF" p-id="8254"></path><path d="M74.238781 1023.998966a74.294077 74.294077 0 0 1-74.239805-74.231613v-608.42848a85.317408 85.317408 0 0 1 85.334816-85.339935h42.664847V73.811385a73.932606 73.932606 0 0 1 74.239805-73.811774h619.946402a73.566015 73.566015 0 0 1 73.811774 73.811774V426.669593h42.669967a85.034784 85.034784 0 0 1 85.329696 85.331743v426.668958a85.31024 85.31024 0 0 1-85.329696 85.329696z m11.093987-85.329696h853.333819v-426.668958H715.520166l-23.471042-47.361923-61.863773-123.299516H85.332768z m127.999663-682.670332h416.85292a84.947745 84.947745 0 0 1 76.371767 46.931844l61.439838 123.737787h42.669968V85.339546H213.332431zM384.168974 821.891593a42.669968 42.669968 0 0 1 0-85.339935h255.999326a42.669968 42.669968 0 0 1 0 85.339935z" p-id="8255"></path></svg>