<svg t="1735372560854" class="icon" viewBox="0 0 1024 1024" version="1.1" xmlns="http://www.w3.org/2000/svg" p-id="8475" xmlns:xlink="http://www.w3.org/1999/xlink" width="200" height="200"><path d="M641.264941 60.235294h-46.260706c-13.974588-35.418353-46.320941-60.235294-83.907764-60.235294H362.496c-17.588706 0-31.924706 5.421176-42.526118 16.143059-19.034353 19.094588-18.913882 46.441412-18.793411 75.474823V801.129412l111.495529 140.047059H421.647059V1024l60.235294-41.441882v-41.441883h8.854588L602.352941 801.069176V120.470588h38.912c20.299294 0 21.323294 32.527059 21.323294 39.032471v256.963765h60.235294V159.503059C722.883765 101.074824 689.332706 60.235294 641.264941 60.235294zM362.496 60.235294h148.600471c17.167059 0 31.081412 17.528471 31.081411 39.032471V301.176471H361.411765V91.316706c0-11.685647-0.120471-29.334588 1.084235-31.081412z m99.328 820.705882h-20.058353L361.472 780.047059 361.411765 361.411765h180.705882v418.635294l-80.293647 100.894117z" p-id="8476"></path></svg>